<?xml version="1.0" standalone="no"?><!DOCTYPE svg PUBLIC "-//W3C//DTD SVG 1.1//EN" "http://www.w3.org/Graphics/SVG/1.1/DTD/svg11.dtd"><svg t="1635479944416" class="icon" viewBox="0 0 1024 1024" version="1.1" xmlns="http://www.w3.org/2000/svg" p-id="17053" xmlns:xlink="http://www.w3.org/1999/xlink" width="200" height="200"><defs><style type="text/css"></style></defs><path d="M917.0037500000001 946.859375H251.92812500000002c-15.971250000000001 0-28.917187499999997-12.945-28.917187499999997-28.91625V252.86562500000002c0-15.9684375 12.9459375-28.91625 28.917187499999997-28.91625h665.0765624999999c15.971250000000001 0 28.917187499999997 12.946875 28.917187499999997 28.917187499999997v665.0765624999999c0 15.971250000000001-12.9459375 28.91625-28.917187499999997 28.91625z m-25.302187500000002-668.690625H277.229375v614.4721875h614.4721875V278.16875zM378.22249999999997 386.60375h412.48499999999996c15.85125 0 28.7025 12.137812499999999 28.7025 27.10875s-12.85125 27.1096875-28.7025 27.1096875H378.22249999999997c-15.85125 0-28.7025-12.137812499999999-28.7025-27.1096875s12.85125-27.10875 28.7025-27.10875z m0 162.654375h412.48499999999996c15.85125 0 28.7025 12.137812499999999 28.7025 27.1096875 0 14.971875-12.85125 27.10875-28.7025 27.10875H378.22249999999997c-15.85125 0-28.7025-12.137812499999999-28.7025-27.10875 0-14.971875 12.85125-27.1096875 28.7025-27.1096875z m0 180.72750000000002h412.48499999999996c15.85125 0 28.7025 12.137812499999999 28.7025 27.10875s-12.85125 27.1096875-28.7025 27.1096875H378.22249999999997c-15.85125 0-28.7025-12.137812499999999-28.7025-27.1096875s12.85125-27.10875 28.7025-27.10875z m368.8978125-596.4H132.64718749999997v614.473125h54.2184375v54.2184375H107.34499999999997c-15.969375 0-28.91625-12.9459375-28.91625-28.917187499999997V108.28437500000001c0-15.969375 12.946875-28.91625 28.91625-28.91625h665.0775000000001c15.969375 0 28.91625 12.946875 28.91625 28.91625v79.520625h-54.2184375V133.58750000000003z" p-id="17054" fill="#13227a"></path></svg>